<?xml version="1.0" encoding="UTF-8"?>
<svg id="Layer_2" data-name="Layer 2" xmlns="http://www.w3.org/2000/svg" viewBox="0 0 878.91 263.57">
  <defs>
    <style>
      .cls-1 {
        fill: #153356;
      }

      .cls-2 {
        fill: #fff;
        stroke: #fff;
        stroke-miterlimit: 10;
        stroke-width: 10px;
      }
    </style>
  </defs>
  <g id="Layer_1-2" data-name="Layer 1">
    <path class="cls-1" d="M875.71,206.89c-2.86-8.2-7.53-14.9-13.88-19.94,2.42-7.2,3.65-14.79,3.65-22.59,0-11.27-2.47-21.67-7.34-30.9-5.15-9.75-12.49-17.56-21.84-23.19-9.34-5.62-19.89-8.48-31.36-8.48-13.08,0-25.07,3.59-35.65,10.69-1.36.91-2.69,1.88-3.97,2.88v-2.67l-.36-.11c3.45-6.33,5.25-13.46,5.25-21.09,0-12.11-4.38-22.9-12.67-31.2-8.28-8.27-19.06-12.64-31.17-12.64-1.28,0-2.55.06-3.81.16-2.08-7.07-4.87-13.51-8.43-19.35-11.17-18.34-28.94-28.45-50.05-28.45-9.9,0-19.25,2.13-27.81,6.34-9.54,4.7-17.4,12.01-23.34,21.69-3.31,5.32-6.02,11.2-8.04,17.49-1.8,5.59-3.2,11.88-4.26,19.22-1.62-14.27-5.63-26.66-11.99-36.97-11.05-17.92-28-27.79-47.72-27.79-13.26,0-25.13,3.87-35.3,11.5-9.48,7.11-16.62,16.86-21.22,28.96-2.72,7.11-4.54,15.23-5.57,24.8-.87,8.06-1.29,18.03-1.29,30.5v19.23c-9.36-8.67-21.28-13.19-34.94-13.19-3.18,0-6.66.25-10.64.75-1.22.16-2.52.35-3.92.59l-6.24-11.52-14.68-2.29c-2.92-.46-5.85-.69-8.71-.69-6.57,0-12.92,1.2-18.87,3.56-8.02,3.18-14.54,7.9-19.44,14.06l-3.3-1.1c-5.9-1.96-12.17-2.96-18.63-2.96-3.39,0-6.77.28-10.06.82-2.28.38-4.38.84-6.38,1.4-6.09-1.75-12.33-2.63-18.58-2.63-14.89,0-28.5,4-40.45,11.88-7.88,5.2-14.66,11.75-20.22,19.51-2.09-4.19-4.64-8.08-7.61-11.59-7.63-9.03-21.65-19.8-45.11-19.8-10.88,0-21.05,2.45-30.26,7.3-8.47-4.78-18.44-7.3-28.98-7.3-9.84,0-19.1,2.13-27.56,6.32-7.74-4.14-16.61-6.32-25.78-6.32-11.97,0-23.19,3.34-33.34,9.93-8.71,5.66-17.26,14.8-26.17,27.96L0,166.19l10.13,16.39c4.17,6.75,9.56,12.23,16.01,16.3,5.46,3.45,11.43,5.93,17.74,7.35l11.03,2.5v43.28l20.1,7.03c5.89,2.06,12.31,3.11,19.06,3.11,3.12,0,6.36-.28,9.65-.82,2.86-.48,5.6-1.11,8.13-1.87l12.39-3.71,11.23,3.57c5.92,1.88,12.13,2.83,18.45,2.83,3.12,0,6.37-.28,9.65-.82,2.87-.48,5.6-1.11,8.13-1.87l21.38-6.41v-1.81c8.12,6.56,20.21,12.33,37.6,12.33,11.94,0,23.47-3.06,33.51-8.88,10.49,5.89,22.35,8.88,35.29,8.88,11.26,0,21.86-2.41,31.54-7.17,8.56,4.76,18.49,7.17,29.54,7.17,17.09,0,32.38-5.28,45.46-15.7,6.59-5.25,12.36-11.6,17.24-18.95,2.21,5.4,5.07,10.26,8.55,14.54,7.47,9.17,21.42,20.11,45.4,20.11,13.73,0,26.87-3.66,39.09-10.89,11.36,6.69,24.77,10.08,39.9,10.08,16.05,0,30.47-4.21,42.85-12.5,5.1-3.42,9.76-7.45,13.89-12.02,3.4,4.78,7.44,9,12.07,12.6,10.86,8.45,24.42,12.73,40.3,12.73h.61c16.31,0,31.46-3.78,45.05-11.22.34-.19.69-.38,1.03-.57,9.87,7.73,22.44,11.79,36.57,11.79,11.71,0,23.68-2.53,35.61-7.52,1.76.83,3.58,1.6,5.42,2.3,9.1,3.46,18.86,5.22,28.99,5.22h.2c8.43,0,16.65-1.17,24.42-3.48,7.24-2.15,14.19-5.13,20.68-8.87l15.03-8.66v-17.34c0-6.07-1.08-12.24-3.2-18.34Z"/>
    <g>
      <path class="cls-2" d="M50.51,176.98c-2.99-.68-5.77-1.83-8.35-3.46-2.58-1.63-4.75-3.87-6.51-6.72l6.92-10.38c6.51-9.63,12.38-16.15,17.61-19.54,5.22-3.39,10.89-5.09,17-5.09s10.82,1.66,14.96,4.99c4.14,3.33,7.09,7.91,8.86,13.74,3.12-5.97,7.23-10.59,12.32-13.84s10.82-4.89,17.2-4.89c13.3,0,22.32,6.85,27.08,20.56,3.26-6.51,7.67-11.57,13.23-15.17,5.56-3.59,11.87-5.39,18.93-5.39,9.63,0,17.03,3.05,22.19,9.16,5.16,6.11,7.74,14.73,7.74,25.85v28.3c0,7.46.98,12.83,2.95,16.08,1.97,3.26,5.12,4.89,9.47,4.89,1.9,0,3.36.81,4.38,2.44,1.02,1.63,1.53,3.8,1.53,6.51,0,2.17-.58,4.14-1.73,5.9-1.15,1.76-3.02,2.65-5.6,2.65-19.68,0-29.52-12.08-29.52-36.24v-26.06c0-7.05-1.29-12.48-3.87-16.29-2.58-3.8-6.24-5.7-10.99-5.7-7.19,0-12.86,4.11-17,12.32-4.14,8.21-6.21,19.58-6.21,34.1v35.01c-1.36.41-2.85.74-4.48,1.02-1.63.27-3.19.41-4.68.41-3.26,0-6.38-.48-9.36-1.42v-56.59c0-8.01-1.39-14.15-4.17-18.42-2.78-4.28-6.89-6.41-12.32-6.41-4.89,0-9.2,1.93-12.93,5.8-3.73,3.87-6.65,9.3-8.75,16.29-2.11,6.99-3.16,15.1-3.16,24.33v35.01c-1.36.41-2.85.74-4.48,1.02-1.63.27-3.19.41-4.68.41-3.39,0-6.45-.48-9.16-1.42v-64.94c0-10.99-3.12-16.49-9.36-16.49-2.04,0-4.31.92-6.82,2.75-2.51,1.83-5.87,6-10.08,12.52l-8.14,12.42Z"/>
      <path class="cls-2" d="M232.09,216.06c4.61,0,9.13-2.27,13.54-6.82,4.41-4.55,8.11-10.69,11.09-18.42-.14-1.9-.2-3.8-.2-5.7,0-10.31,2.04-19.47,6.11-27.48,4.07-8.01,9.6-14.32,16.59-18.93,6.99-4.61,14.96-6.92,23.92-6.92,4.75,0,9.43.92,14.05,2.75,4.61,1.83,8.48,4.31,11.6,7.43v-8.35c1.22-.41,2.65-.74,4.27-1.02,1.63-.27,3.32-.41,5.09-.41,3.26,0,6.31.48,9.16,1.42v59.65c0,7.19,1.12,12.79,3.36,16.79,2.24,4,6.01,6,11.3,6,2.31,0,3.87.95,4.68,2.85.81,1.9,1.22,3.94,1.22,6.11s-.58,4.14-1.73,5.9c-1.15,1.76-3.02,2.65-5.6,2.65-13.3,0-22.19-5.97-26.67-17.91-3.94,5.57-8.86,9.94-14.76,13.13-5.9,3.19-12.45,4.78-19.65,4.78-7.87,0-14.83-1.73-20.87-5.19-6.04-3.46-10.96-8.25-14.76-14.35-8.42,13.03-19.48,19.54-33.18,19.54-1.76,0-3.19-.81-4.28-2.44-1.08-1.63-1.63-3.73-1.63-6.31,0-5.83,2.44-8.75,7.33-8.75ZM275.46,185.12c0,9.64,2.2,17.2,6.62,22.7,4.41,5.5,10.48,8.25,18.22,8.25,8.55,0,15.44-2.92,20.66-8.75,5.22-5.83,7.84-13.5,7.84-23v-22.8c-2.72-3.66-6.18-6.62-10.38-8.85-4.21-2.24-8.55-3.36-13.03-3.36-5.84,0-10.99,1.56-15.47,4.68-4.48,3.12-8.01,7.36-10.59,12.72-2.58,5.36-3.87,11.5-3.87,18.42Z"/>
      <path class="cls-2" d="M360.55,233.57c-1.76,0-3.19-.81-4.28-2.44-1.08-1.63-1.63-3.73-1.63-6.31,0-5.83,2.44-8.75,7.33-8.75,5.97,0,11.3-2.47,15.98-7.43,4.68-4.95,8.41-11.71,11.2-20.25,2.78-8.55,4.17-18.05,4.17-28.5,0-2.44-.14-4.68-.41-6.72-.27-2.04-.61-3.73-1.02-5.09-1.22-1.22-2.54-3.19-3.97-5.9-1.43-2.71-2.65-5.6-3.66-8.65-1.02-3.05-1.53-5.53-1.53-7.43,1.63-2.58,4.24-4.58,7.84-6.01,3.59-1.42,7.56-1.8,11.91-1.12,2.58,4.75,4.68,10.72,6.31,17.91,4.07-.13,9.57-1.02,16.49-2.65,4.34-.95,7.84-1.59,10.48-1.93,2.64-.34,4.92-.51,6.82-.51,7.33,0,13.1,2.75,17.3,8.24,4.21,5.5,6.31,12.93,6.31,22.29v32.78c0,7.46.98,12.83,2.95,16.08,1.97,3.26,5.12,4.89,9.47,4.89,1.9,0,3.36.81,4.38,2.44,1.02,1.63,1.53,3.8,1.53,6.51,0,2.17-.58,4.14-1.73,5.9-1.15,1.76-3.02,2.65-5.6,2.65-19.68,0-29.52-12.08-29.52-36.24v-31.55c0-6.11-.68-10.38-2.04-12.83-1.36-2.44-3.8-3.66-7.33-3.66-1.22,0-2.58.14-4.07.41-1.5.27-4.14.81-7.94,1.63-6.65,1.36-11.67,2.17-15.06,2.44.13,2.17.2,4.34.2,6.51,0,14.66-2.11,27.48-6.31,38.47-4.21,10.99-10.15,19.54-17.81,25.65-7.67,6.11-16.59,9.16-26.77,9.16Z"/>
      <path class="cls-2" d="M477.19,233.57c-1.76,0-3.19-.81-4.27-2.44-1.08-1.63-1.63-3.73-1.63-6.31,0-2.71.65-4.85,1.93-6.41,1.29-1.56,3.02-2.34,5.19-2.34,4.89,0,10.18-1.97,15.88-5.9,5.7-3.93,11.2-9.36,16.49-16.29-2.17-9.91-3.26-23.75-3.26-41.53v-56.59c0-11.26.37-20.36,1.12-27.28.74-6.92,2-12.69,3.77-17.3,2.58-6.78,6.31-12.01,11.2-15.67,4.89-3.66,10.65-5.5,17.3-5.5,9.23,0,16.62,4.51,22.19,13.54,5.56,9.03,8.35,21.14,8.35,36.34,0,12.9-1.6,26.19-4.78,39.9-3.19,13.71-7.84,27.25-13.95,40.61-6.11,13.37-13.51,25.96-22.19,37.76.41.95.81,1.83,1.22,2.65,2.85,5.02,6.21,8.72,10.08,11.09,3.87,2.38,8.65,3.56,14.35,3.56,6.11,0,11.47-1.7,16.08-5.09,4.61-3.39,8.21-8.11,10.79-14.15,2.58-6.04,3.87-12.99,3.87-20.87,0-2.85-.2-5.7-.61-8.55-8.55-5.43-14.18-10.25-16.9-14.45.95-2.71,2.47-5.32,4.58-7.84,2.1-2.51,4.44-4.55,7.02-6.11,2.58-1.56,5.02-2.34,7.33-2.34,3.12,0,5.97,1.66,8.55,4.99,2.58,3.33,4.65,7.74,6.21,13.23,1.56,5.5,2.34,11.57,2.34,18.22,0,12.21-2,22.83-6.01,31.86-4,9.03-9.7,16.01-17.1,20.97-7.4,4.96-16.12,7.43-26.16,7.43-17.78,0-30.61-6.65-38.48-19.95-12.49,13.84-25.99,20.76-40.51,20.76ZM524.62,148.28c0,10.99.34,20.02,1.02,27.08,9.36-16.01,16.46-32.23,21.27-48.65,4.82-16.42,7.23-32.09,7.23-47.03,0-21.85-4.75-32.77-14.25-32.77-5.57,0-9.57,3.73-12.01,11.2-2.17,6.65-3.26,18.39-3.26,35.22v54.96Z"/>
      <path class="cls-2" d="M665.29,233.57c-9.09,0-16.39-2.14-21.88-6.41-5.5-4.28-9.33-10.35-11.5-18.22-.68-2.71-1.29-5.73-1.83-9.06-.54-3.32-.95-7.67-1.22-13.03-.27-5.36-.48-12.32-.61-20.87-4.48,1.09-9.16,1.97-14.05,2.65-4.89.68-9.29,1.02-13.23,1.02-4.75,0-8.21-.61-10.38-1.83-2.17-1.22-3.26-3.59-3.26-7.12,0-2.44.48-4.24,1.43-5.39.95-1.15,2.04-1.73,3.26-1.73h5.5c5.02,0,10.08-.41,15.17-1.22,5.09-.81,10.28-1.97,15.57-3.46v-27.69c0-12.08.13-22.32.41-30.74.27-8.41.81-15.47,1.63-21.17.81-5.7,1.86-10.55,3.16-14.56,1.29-4,2.95-7.63,4.99-10.89,2.98-4.89,6.68-8.41,11.09-10.59,4.41-2.17,9.26-3.26,14.56-3.26,10.59,0,18.73,4.68,24.43,14.05s8.55,22.26,8.55,38.68c0,12.76-2.21,24.36-6.62,34.81-4.41,10.45-10.42,19.44-18.02,26.97-7.6,7.53-16.29,13.33-26.06,17.41,0,11.67.24,20.56.71,26.67.47,6.11,1.19,10.99,2.14,14.66,1.08,3.8,3.02,6.92,5.8,9.36,2.78,2.44,6.62,3.66,11.5,3.66,1.9,0,3.43.78,4.58,2.34,1.15,1.56,1.73,3.7,1.73,6.41,0,5.7-2.51,8.55-7.53,8.55ZM646.36,122.42v21.17c9.5-4.89,17.3-12.72,23.41-23.51,6.11-10.79,9.16-23.38,9.16-37.76,0-11.26-1.32-19.88-3.97-25.85-2.65-5.97-6.28-8.96-10.89-8.96-5.29,0-9.3,3.12-12.01,9.36-1.36,3.26-2.48,7.36-3.36,12.32-.88,4.96-1.49,11.64-1.83,20.05-.34,8.42-.51,19.48-.51,33.18Z"/>
      <path class="cls-2" d="M665.9,233.57c-2.04,0-3.63-.81-4.78-2.44-1.15-1.63-1.73-3.73-1.73-6.31,0-2.71.68-4.82,2.04-6.31,1.36-1.49,3.12-2.24,5.29-2.24,9.64,0,18.22-2.75,25.75-8.24s13.47-13.06,17.81-22.7c4.34-9.63,6.51-20.63,6.51-32.98v-17.71c1.22-.41,2.65-.74,4.27-1.02,1.63-.27,3.32-.41,5.09-.41,3.12,0,6.17.48,9.16,1.43v58.63c0,7.19,1.12,12.79,3.36,16.79,2.24,4,6.01,6,11.3,6,2.31,0,3.87.95,4.68,2.85.81,1.9,1.22,3.94,1.22,6.11s-.58,4.14-1.73,5.9c-1.15,1.76-3.02,2.65-5.6,2.65-16.83,0-26.6-9.5-29.31-28.5-5.97,8.96-13.54,15.95-22.7,20.97-9.16,5.02-19.37,7.53-30.64,7.53ZM726.36,105.32c-3.8,0-7.06-1.35-9.77-4.07-2.72-2.71-4.07-5.97-4.07-9.77,0-4.07,1.32-7.4,3.97-9.98,2.65-2.58,5.94-3.87,9.87-3.87s7.4,1.29,9.98,3.87c2.58,2.58,3.87,5.9,3.87,9.98s-1.32,7.23-3.97,9.87-5.94,3.97-9.87,3.97Z"/>
      <path class="cls-2" d="M748.55,233.57c-1.76,0-3.19-.81-4.27-2.44-1.08-1.63-1.63-3.73-1.63-6.31,0-5.83,2.44-8.75,7.33-8.75,3.93,0,7.94-.64,12.01-1.93,4.07-1.29,8.82-3.49,14.25-6.62-5.29-9.23-7.94-20.08-7.94-32.57,0-8.41,1.56-15.84,4.68-22.29,3.12-6.44,7.46-11.53,13.03-15.27,5.56-3.73,11.87-5.6,18.93-5.6,5.97,0,11.26,1.39,15.88,4.17,4.61,2.78,8.21,6.62,10.79,11.5,2.58,4.89,3.87,10.52,3.87,16.9,0,8.69-2.54,16.63-7.63,23.82-5.09,7.2-13.67,15-25.75,23.41,4.34,3.12,10.18,4.68,17.51,4.68,3.93,0,7.87-.54,11.81-1.63,3.93-1.08,7.74-2.58,11.4-4.48,2.04,1.5,3.56,3.7,4.58,6.62,1.02,2.92,1.53,5.73,1.53,8.45-4.48,2.58-9.23,4.62-14.25,6.11-5.02,1.49-10.32,2.24-15.88,2.24h-.2c-6.51,0-12.62-1.09-18.32-3.26-5.7-2.17-10.45-5.16-14.25-8.96-13.03,8.14-25.52,12.21-37.46,12.21ZM786.01,173.31c0,10.72,1.9,19.27,5.7,25.65,8.82-6.11,15.37-12.08,19.65-17.92,4.27-5.83,6.41-11.4,6.41-16.69,0-4.88-1.19-8.72-3.56-11.5-2.38-2.78-5.67-4.17-9.87-4.17-5.29,0-9.67,2.38-13.13,7.13-3.46,4.75-5.19,10.59-5.19,17.51Z"/>
    </g>
  </g>
</svg>