<svg width="66" height="67" viewBox="0 0 66 67" fill="none" xmlns="http://www.w3.org/2000/svg">
<path d="M50.4635 25.8334L42.5097 28.8889V25.2223C42.5097 24.574 42.2125 23.9522 41.6836 23.4938C41.1546 23.0354 40.4372 22.7778 39.6892 22.7778H18.5354C17.7873 22.7778 17.0699 23.0354 16.541 23.4938C16.012 23.9522 15.7148 24.574 15.7148 25.2223V42.3334C15.7148 42.9817 16.012 43.6035 16.541 44.0619C17.0699 44.5202 17.7873 44.7778 18.5354 44.7778H39.6892C40.4372 44.7778 41.1546 44.5202 41.6836 44.0619C42.2125 43.6035 42.5097 42.9817 42.5097 42.3334V38.6667L50.4635 41.7223C50.6779 41.7939 50.9094 41.8193 51.1376 41.7956C51.3658 41.7721 51.5841 41.7008 51.7731 41.5873C51.9621 41.4742 52.1163 41.3226 52.2224 41.1459C52.3284 40.9691 52.3832 40.7726 52.3815 40.5734V26.9823C52.3832 26.7831 52.3284 26.5865 52.2224 26.4098C52.1163 26.2331 51.9621 26.0815 51.7731 25.9682C51.5841 25.8549 51.3658 25.7835 51.1376 25.76C50.9094 25.7365 50.6779 25.7617 50.4635 25.8334Z" stroke="#626278" stroke-width="4.19048" stroke-linecap="round" stroke-linejoin="round"/>
</svg>
