<?xml version="1.0" encoding="UTF-8"?>
<svg id="Layer_2" data-name="Layer 2" xmlns="http://www.w3.org/2000/svg" viewBox="0 0 996.73 754.79">
  <defs>
    <style>
      .cls-1 {
        fill: #153356;
      }

      .cls-2 {
        fill: #fff;
      }
    </style>
  </defs>
  <g id="Layer_1-2" data-name="Layer 1">
    <path class="cls-1" d="M926.6,423.13c-18,8.21-36.78,11.73-55.84,10.44-18.02-1.22-35.16-6.3-50.94-15.11,0,0-1.28-.73-1.78-1.02-3.34,12.89-8.53,25.06-15.52,36.4-13.89,22.51-34.03,39.91-59.87,51.7-26.35,12.02-49.76,14.98-69.59,13.28-14.23,19.69-32.33,34.77-53.56,44.46-33.13,15.12-74.32,16.83-108.35-11.58-2.63,12.76-6.82,24.83-12.55,36.12-13.25,26.08-34.62,46.42-61.8,58.83-19.81,9.04-42.49,13.28-64.8,9.18l-29.61,25.94c-3.53,3.1-7.49,6.14-11.77,9.03-4.95,3.33-10.01,6.18-15.09,8.5-10.26,4.68-21.04,7.73-32.05,9.07l-18.97,2.29-15.87,13.9c-3.53,3.1-7.49,6.14-11.77,9.03-4.95,3.33-10.01,6.18-15.09,8.5-10.98,5.01-22.19,8.07-33.34,9.09l-39.21,3.62-30.8-67.48-16.1,3.34c-11.33,2.35-22.89,2.76-34.33,1.2-13.6-1.85-26.51-6.8-38.35-14.72l-29.62-19.79,9.15-56.7c4.67-27.83,11.52-48.12,21.53-63.86,11.59-18.22,27.33-31.95,46.77-40.82,14.49-6.61,29.69-9.63,44.77-8.97,10.41-12.36,23.41-22.14,38.78-29.15,16.72-7.63,33.79-10.85,50.43-9.73,11.16-13.91,25.37-24.86,42.38-32.62,24.16-11.03,45.4-12.19,62.59-9.25l.25-1.82c2.29-16.81,10.24-32.71,22.97-45.95,7.95-8.28,17.44-14.98,28.19-19.89,4.66-2.13,9.6-3.93,14.68-5.35l26.44-7.42,17.37,13.09c1.22-.8,2.41-1.56,3.56-2.28,6.02-3.73,11.42-6.68,16.57-9.02,19.27-8.79,39.53-10.99,58.88-6.63l-10.36-22.7c-8.85-19.4-15.56-35.92-19.93-49.1-5.26-15.82-8.36-30.57-9.18-43.8-1.5-22.94,2.88-44.04,13-62.61,10.73-19.68,27.63-35.21,48.86-44.9,32.15-14.67,67.08-11.22,98.36,9.72,12.56,8.41,23.99,19.33,34.21,32.64-.88-4.47-1.55-8.76-2.03-12.84-1.36-11.59-1.33-23.05.09-34.04,2.48-20.18,9.84-37.89,21.89-52.64,10.77-13.17,24.36-23.56,40.41-30.89,34.34-15.67,70.74-12.44,102.5,9.1,24.1,16.35,44.42,42.38,60.39,77.38,11.93,26.14,18.45,52.8,19.38,79.25.93,26.35-3.05,51.8-11.83,75.65-1.75,4.75-3.67,9.42-5.76,13.99l.73-1.19,39.79,10.2c23.22,5.95,42.26,20.29,55.08,41.48l15.83,26.17-13.66,27.35c-11.93,23.88-31.46,42.55-56.48,53.97Z"/>
    <path class="cls-2" d="M914.19,319.55l-6.19-1.59-3.33,5.45c-3.67,6.02-8.84,10.5-15.8,13.67-5.04,2.3-9.98,3.01-15.1,2.15-5.08-.84-10.39-3.81-15.69-8.72-10.41-9.93-22.58-27.25-36.22-51.54,10.81-13.09,19.29-27.87,25.23-44.01,6.67-18.12,9.69-37.57,8.98-57.81-.71-20.26-5.82-40.93-15.18-61.44-12.35-27.07-27.17-46.59-44.05-58.04-18.22-12.35-37.31-14.12-56.74-5.25-9.46,4.32-17.4,10.34-23.58,17.9-6.39,7.82-10.32,17.56-11.68,28.85-.95,7.24-.96,14.89-.04,22.75.89,7.62,2.83,16.54,5.76,26.49,2.88,9.79,7.22,21.64,12.9,35.22,5.54,13.27,12.76,29.66,21.45,48.71,6.16,13.51,11.99,25.88,17.37,36.87-5.3,4.27-10.69,8.27-16.1,11.95-2.72,1.85-5.57,3.65-8.53,5.38-5.19-5.14-10.49-9.14-15.8-11.93-8.87-4.65-17.13-5.29-24.55-1.91-5.05,2.3-9.54,6.31-13.36,11.9-3.45,5.06-6.08,10.83-7.82,17.15-1.78,6.43-2.4,12.7-1.85,18.65l.39,4.2,3.55,2.28c7.78,4.99,19.65,8.68,36.21,11.25,1.64,2.79,3.13,5.67,4.46,8.59,5.11,11.21,7.83,22,8.08,32.08.24,9.69-1.68,18.26-5.69,25.46-3.92,7.03-9.68,12.2-17.6,15.82-7.42,3.39-14.28,4.72-20.39,3.96-6.07-.74-12.49-3.49-19.1-8.17,4.59-23.57,6.92-47.68,6.93-71.73.01-25.76-2.46-51.09-7.36-75.31-4.92-24.3-12.2-47.11-21.64-67.8-11.49-25.17-25.65-43.52-42.1-54.55-17.76-11.89-35.53-13.92-52.82-6.03-12.11,5.52-21.25,13.84-27.17,24.7-5.81,10.65-8.29,23.18-7.37,37.23.58,9.2,2.9,19.96,6.89,31.98,3.85,11.6,9.93,26.53,18.08,44.4l40.46,88.66c11.95,26.19,23.15,46.69,33.32,61.01-3.06,12.07-7.18,22.48-12.27,31.01-5.13,8.6-10.75,14.35-16.62,17.07-5.03,2.26-7.75,1.16-9.75-.21-2.8-1.91-7.34-6.85-13.13-19.54l-23.43-51.34c-7.47-16.36-17.43-27.95-29.62-34.45-12.97-6.91-26.64-7.17-40.64-.78-3.31,1.51-7,3.53-11.29,6.19-4.13,2.56-9.25,6.15-15.77,11.03-6.27,4.86-11.78,8.75-16.46,11.64-6.58-7.94-13.19-14.43-19.69-19.32l-3.41-2.57-4.11,1.15c-8.77,2.46-16.08,6.7-21.75,12.6-5.88,6.12-9.36,12.79-10.31,19.82l-.34,2.48,1.04,2.27c1.77,3.87,4.79,8.07,9.24,12.85,4.08,4.38,8.44,8.37,12.95,11.87,3.9,3.02,7.32,5.23,10.39,6.69,1,1.29,2.09,2.88,3.26,4.73,1.68,2.68,3.33,5.78,4.9,9.23,7.05,15.46,11.46,30.61,13.11,45.03,1.6,14.03.71,26.14-2.65,35.97-3.02,8.84-7.97,14.73-15.14,18-5.09,2.32-7.84,1.22-9.87-.16-2.8-1.91-7.34-6.85-13.13-19.54l-20.23-44.33c-8.79-19.25-20.48-32.44-34.77-39.2-14.8-6.98-31.14-6.49-48.58,1.47-12.54,5.72-22.46,14.19-29.49,25.19-4.12,6.45-7.13,13.5-9,21.11-16.67-11.26-35.19-12.67-54.31-3.94-11.47,5.23-20.6,13.02-27.12,23.12-3.64,5.64-6.38,11.81-8.2,18.47-4.85-3.17-10.04-5.47-15.52-6.86-10.78-2.73-21.78-1.59-32.71,3.4-11.06,5.05-20.04,12.9-26.69,23.34-6.45,10.13-11.3,25.31-14.85,46.46l-4.3,26.69,4.61,3.08c5.87,3.93,12.14,6.36,18.64,7.24,6.15.84,12.37.62,18.47-.65l5.87-1.22,4.8-31.26c2.32-15.86,4.64-21.74,5.82-23.83,2.31-4.1,4.11-5.25,4.78-5.56,4.52-2.06,9.58,2.94,15.02,14.87l48.97,107.31,6.1-.56c5.88-.54,11.99-2.24,18.16-5.06,2.74-1.25,5.53-2.83,8.3-4.69,2.66-1.8,5.07-3.64,7.14-5.45l4.83-4.23-27.7-60.7c-6.22-13.63-10.17-26.4-11.75-37.95-1.51-11.02-.95-20.35,1.66-27.73,2.29-6.48,6.06-10.85,11.55-13.35,5.88-2.68,10.71-2.47,15.66.67,5.95,3.78,11.49,11.24,16.48,22.17l43.08,94.4,6.27-.76c6.22-.75,12.35-2.5,18.24-5.18,2.74-1.25,5.53-2.83,8.3-4.69,2.66-1.8,5.07-3.64,7.14-5.45l4.83-4.23-27.7-60.7c-9.77-21.4-14.44-39.55-13.88-53.94.64-16.51,7.6-21.56,12.78-23.93,4.84-2.21,8.92-2.03,13.22.59,5.23,3.18,10.05,9.56,14.34,18.96l18.63,40.82c24.37,53.4,58.9,51.19,83.6,39.93,17.68-8.07,30.97-20.67,39.48-37.42,8.32-16.37,11.85-35.67,10.49-57.37-1.33-21.2-7.52-44.02-18.38-67.83-.49-1.08-1-2.16-1.52-3.25,4.37-2.82,9.56-6.43,15.69-10.9,5.14-3.82,8.96-6.61,11.05-8.06,1.73-1.2,3.32-2.13,4.75-2.79,3.67-1.67,4.83-.82,5.38-.41,1.21.89,4.56,4.17,9.63,15.27l22.56,49.43c24.37,53.41,58.9,51.19,83.58,39.93,22.27-10.16,38.94-29.14,49.65-56.49,22.06,11.37,46.74,10.96,73.5-1.25,17.24-7.87,30.51-19.19,39.43-33.66,8.88-14.4,13.28-31.12,13.08-49.7-.19-17.37-4.56-35.9-12.99-55.12,2.55-1.49,5.11-3.07,7.67-4.72,4.73-3.06,9.33-6.24,13.76-9.53,20.2,34.43,39.37,56.51,58.52,67.37,9.69,5.41,20.2,8.53,31.26,9.27,11.21.76,22.39-1.37,33.23-6.32,15.38-7.02,26.82-17.87,34.01-32.27l2.13-4.26-2.46-4.07c-6.42-10.62-15.38-17.46-26.62-20.34ZM759.77,95.56c1.57-.72,5.73-2.62,14.15,4.85,7.47,6.63,15.07,18.33,22.58,34.79,9.51,20.85,13.47,41.39,11.75,61.05-1.19,13.68-4.47,25.92-9.77,36.54-2.79-5.95-5.67-12.19-8.63-18.65-9.74-21.33-17.4-38.84-22.79-52.03-5.31-13-9.05-23.63-11.09-31.61-1.99-7.74-3.1-14.41-3.27-19.7-.19-10.57,3.68-13.7,7.07-15.25ZM564.8,183.37c12.59-5.75,26.91,20.65,34.32,36.89,10.28,22.52,17.54,48.25,21.6,76.48,2.71,18.89,3.83,38.54,3.35,58.7-2.08-4.33-4.23-8.92-6.44-13.77l-39.29-86.1c-11.6-25.42-18.11-43.88-19.35-54.88-1.56-13.94,3.8-16.39,5.82-17.31Z"/>
  </g>
</svg>