<?xml version="1.0" encoding="UTF-8"?>
<svg id="Layer_2" xmlns="http://www.w3.org/2000/svg" version="1.1" viewBox="0 0 1000 1000">
  <!-- Generator: Adobe Illustrator 29.2.1, SVG Export Plug-In . SVG Version: 2.1.0 Build 116)  -->
  <defs>
    <style>
      .st0 {
        fill: #153356;
      }

      .st1 {
        fill: #fff;
      }
    </style>
  </defs>
  <g id="Layer_1-2">
    <path class="st0" d="M812.5,784.7c-47.9,0-90.6-12.8-124.9-37.3l-76.5,22.9c-9,2.7-18.6,4.9-28.7,6.6h-.2c-11.5,1.9-23,2.9-34.1,2.9-22.4,0-44.4-3.4-65.4-10l-36.9-11.7-40.9,12.3c-9,2.7-18.6,4.9-28.7,6.6h-.2c-11.5,1.9-23,2.9-34.1,2.9-23.9,0-46.7-3.7-67.6-11l-73.3-25.6v-148.5l-33.3-7.6c-22.4-5.1-43.6-13.9-63-26.1-23-14.5-42.2-34-57-58.1l-37-59.7,63.1-94.7c31.5-46.6,60.6-77.7,91.8-97.9,36-23.4,75.7-35.2,118.1-35.2s62,7.2,88.9,21c29.2-14,61-21,94.8-21s70.5,8.4,99.8,24.4c31.8-16.2,66.8-24.4,104.2-24.4,83.1,0,132.9,38.3,160,70.3,34.8,41.2,52.5,94.9,52.5,159.6v49.3l15.8,7.5c28.4,13.4,52,35.7,68.2,64.4,15.3,27.1,22.5,57,21,86.5l-2,38.3-25.5,28.7c-18,20.2-40.3,36.3-66.5,47.8-25.6,11.3-53.2,17-81.9,17h-.7Z"/>
    <path class="st1" d="M887.6,611.8c-6.9-12.2-16-21.1-27.2-26.3l-9.1-4.3-8.2,5.8c-5.3,3.8-10.4,6.7-15.2,8.5-4.1,1.6-7.7,2.4-10.7,2.4-11.3,0-15.4-4.3-18-8.6-3.5-5.8-7.7-18.6-7.7-46.5v-97.5c0-42.3-10.3-76-30.7-100.1-21.1-25-51.2-37.6-89.5-37.6s-52.6,7.2-74.5,21.3c-12.9,8.3-24.3,18.7-34,31.1-21-34.4-53.5-52.4-95.5-52.4s-48.2,6.6-68.5,19.5c-11.4,7.3-21.5,16.3-30.4,26.9-6.2-9.9-13.8-18.4-22.6-25.5-17.3-13.9-38.2-20.9-62.2-20.9s-47.1,6.8-67.9,20.3c-20.1,13.1-41.5,36.6-65.6,72.2l-29.9,44.9,5.8,9.3c7.4,12,16.8,21.6,27.8,28.6,10.5,6.6,22,11.4,34.1,14.1l11.6,2.6,34.6-52.8c17.4-27,26.5-35.7,30.4-38.6,7.6-5.6,11.9-6.2,13.4-6.2,10.1,0,15.2,13.4,15.2,39.7v235.8l11.5,4c11.1,3.9,23.6,5.9,37.2,5.9s12.4-.5,19-1.6c6.3-1.1,12.2-2.4,17.5-4l12.2-3.6v-133.3c0-30,3.4-56.5,10.1-78.9,6.4-21.3,15.2-37.9,26.1-49.2,9.6-9.9,20.1-14.8,32.2-14.8s21.6,4.4,28.1,14.3c7.7,11.9,11.6,30.1,11.6,54.1v207.4l11.9,3.8c11.9,3.8,24.5,5.7,37.4,5.7s12.4-.5,19-1.6c6.3-1.1,12.2-2.4,17.5-4l12.2-3.6v-133.3c0-47.1,6.6-84,19.6-109.8,14.9-29.6,31.8-33,43.3-33s18,3.8,23.7,12.1c6.9,10.2,10.4,25.8,10.4,46.5v89.7c0,117.3,64.6,141.9,118.8,141.9h.7c15.9,0,30.9-3.1,44.7-9.2,13.9-6.1,25.5-14.4,34.6-24.6l4-4.5.3-6c.6-12.1-2.5-24.3-9.2-36.3h0Z"/>
  </g>
</svg>