<?xml version="1.0" encoding="UTF-8"?>
<svg id="Layer_2" data-name="Layer 2" xmlns="http://www.w3.org/2000/svg" viewBox="0 0 997.29 591.43">
  <defs>
    <style>
      .cls-1 {
        fill: #153356;
      }

      .cls-2 {
        fill: #fff;
        stroke: #fff;
        stroke-miterlimit: 10;
        stroke-width: 10px;
      }
    </style>
  </defs>
  <g id="Layer_1-2" data-name="Layer 1">
    <path class="cls-1" d="M975.65,124.81c-7.29-7.48-15.79-12.42-25.28-14.69-1.02-9.09-3.54-17.98-7.51-26.49-5.73-12.29-13.71-22.37-23.72-29.96-10.57-8.02-22.55-12.79-35.61-14.19-13.04-1.39-26,.87-38.51,6.7-14.26,6.65-25.52,16.67-33.44,29.78-1.02,1.69-1.98,3.41-2.87,5.17l-1.36-2.91-.45.06c.55-8.66-1.12-17.34-5-25.67-6.16-13.21-16.42-22.75-29.68-27.58-13.24-4.81-27.21-4.09-40.42,2.07-1.4.65-2.75,1.36-4.07,2.11-5.86-6.66-12.18-12.25-19.03-16.81-21.51-14.33-46.03-16.3-69.05-5.57-10.79,5.03-19.91,12.12-27.1,21.06-8.02,9.98-12.87,21.94-14.42,35.53-.91,7.48-.86,15.27.13,23.17.88,7.01,2.56,14.58,5.13,23.13-9.02-14.73-19.7-26.2-31.87-34.21-21.17-13.92-44.67-16.06-66.17-6.03-14.46,6.74-25.44,17-32.65,30.49-6.73,12.58-9.55,26.84-8.41,42.37.65,9.14,2.79,18.91,6.54,29.88,3.15,9.23,7.76,20.32,14.1,33.92l9.78,20.97c-14.62-4.69-29.92-3.57-44.81,3.38-3.47,1.62-7.14,3.66-11.22,6.24-1.26.79-2.57,1.67-3.98,2.63l-12.67-9.39-17.17,4.97c-3.41.99-6.73,2.23-9.84,3.68-7.16,3.34-13.48,7.88-18.77,13.48-7.13,7.54-11.84,16.01-14.05,25.22l-4.16.48c-7.43.86-14.77,2.96-21.82,6.25-3.7,1.73-7.25,3.75-10.55,6.01-2.29,1.58-4.35,3.15-6.24,4.78-7.53,1.19-14.78,3.4-21.6,6.58-16.24,7.57-29.04,18.85-38.06,33.53-5.95,9.68-10.01,20.27-12.13,31.56-4.42-3.51-9.17-6.45-14.2-8.77-12.92-5.97-33.68-10.58-59.26,1.35-11.87,5.53-21.71,13.38-29.28,23.35-11.67-.91-23.82,1.42-35.32,6.78-10.73,5-19.75,12.03-26.84,20.91-10.55-.58-21.32,1.55-31.32,6.21-13.06,6.09-23.59,15.44-31.3,27.78-6.62,10.6-11.3,24.91-14.31,43.8l-5.79,37.9,19.38,12.71c7.98,5.23,16.64,8.48,25.75,9.64,7.71.99,15.48.65,23.08-1l13.3-2.88,22.01,47.19,25.49-2.56c7.47-.75,15-2.87,22.36-6.31,3.4-1.59,6.8-3.54,10.11-5.8,2.88-1.98,5.54-4.06,7.91-6.17l11.62-10.35,14.06-1.82c7.41-.96,14.66-3.08,21.56-6.29,3.4-1.59,6.8-3.54,10.11-5.8,2.88-1.98,5.54-4.06,7.91-6.17l20.06-17.87-.92-1.97c12.2,3.02,28.31,3.17,47.27-5.67,13.02-6.07,24.03-15.28,32.02-26.72,14.43,1.09,28.89-1.68,43-8.26,12.28-5.73,22.61-13.74,30.74-23.85,11.76.83,23.81-1.59,35.86-7.21,18.63-8.69,32.62-22.23,41.59-40.23,4.52-9.08,7.58-18.94,9.16-29.43,5.15,4.76,10.75,8.62,16.72,11.51,12.82,6.2,33.58,11.04,59.73-1.16,14.97-6.98,27.43-17.66,37.08-31.75,15.79,1.52,32.13-1.61,48.64-9.3,17.5-8.16,31.09-20.08,40.37-35.43,3.83-6.32,6.85-13.08,9.03-20.17,6.14,3.48,12.7,6.03,19.57,7.6,16.14,3.69,33.11,1.47,50.43-6.61l.66-.31c17.78-8.29,32.39-20.12,43.42-35.15.28-.38.56-.76.83-1.15,14.69,3.41,30.47,1.45,45.88-5.73,12.77-5.95,24.54-14.8,35.01-26.31,2.34,0,4.72-.08,7.09-.25,11.69-.85,23.22-3.9,34.27-9.05l.22-.1c9.19-4.29,17.56-9.74,24.86-16.22,6.8-6.02,12.87-12.82,18.04-20.18l11.99-17.08-8.82-18.91c-3.09-6.62-7.4-12.8-12.82-18.37Z"/>
    <g>
      <path class="cls-2" d="M761.14,90c4.29-2,7.21-5.12,8.75-9.35s1.31-8.49-.69-12.79-5.17-7.41-9.29-8.91c-4.12-1.5-8.4-1.22-12.85.85s-7.22,5.08-8.8,9.24c-1.57,4.16-1.33,8.46.74,12.9,1.93,4.14,5.07,7.01,9.41,8.59,4.34,1.58,8.58,1.4,12.73-.53Z"/>
      <path class="cls-2" d="M949.79,150c-2.59-2.66-5.38-4.29-8.36-4.89-3.03,3.94-6.41,7.5-10.15,10.68-3.74,3.19-7.76,5.78-12.05,7.78-7.99,3.73-15.15,5-21.47,3.8,8.89-15.32,14.29-28.19,16.18-38.63,1.89-10.43.63-20.38-3.79-29.86-3.24-6.95-7.52-12.44-12.81-16.46-5.3-4.02-11.17-6.37-17.61-7.06-6.45-.68-12.93.49-19.44,3.52-7.7,3.59-13.63,8.83-17.8,15.73-4.17,6.9-6.32,14.66-6.44,23.28-.13,8.62,1.95,17.52,6.23,26.69,6.35,13.62,14.76,24.11,25.22,31.48-4.33,6.17-8.39,10.99-12.17,14.46-3.78,3.48-7.82,6.22-12.11,8.22-5.77,2.69-10.9,2.42-15.37-.8-4.48-3.23-8.54-8.76-12.2-16.61l-29.82-63.93c-3.74.49-7.31,1.52-10.71,3.1-1.93.9-3.7,1.91-5.34,3.03-1.64,1.13-3.02,2.22-4.14,3.28l9.01,19.31c6.28,13.47,9.5,26.56,9.67,39.28.16,12.72-2.46,23.99-7.88,33.81-5.42,9.82-13.38,17.19-23.89,22.09-.04.02-.08.04-.12.06-.03.02-.07.03-.1.04-5.33,2.48-10.13,3.1-14.41,1.85-4.28-1.25-7.97-3.67-11.09-7.26-2.9-3.51-6.16-8.48-9.79-14.9-3.63-6.42-8.4-15.99-14.34-28.72,8.59-9.41,15.1-20.15,19.56-32.23,4.46-12.08,6.43-24.93,5.93-38.58-.51-13.64-4-27.41-10.49-41.33-8.35-17.91-18.02-30.52-28.99-37.83-10.98-7.31-22.24-8.28-33.78-2.89-5.77,2.69-10.51,6.35-14.22,10.95-3.71,4.61-5.95,10.34-6.72,17.19-.56,4.59-.53,9.39.1,14.41.63,5.02,1.95,10.85,3.96,17.48,2.01,6.63,5.01,14.6,8.99,23.92,3.98,9.32,9.05,20.56,15.19,33.73l14.08,30.19c-5.01,4.32-10.09,8.22-15.22,11.69-3.32,2.25-6.72,4.28-10.19,6.15-4.25-4.76-8.5-8.25-12.76-10.44-4.5-2.31-8.46-2.68-11.86-1.09-2.52,1.17-4.78,3.27-6.8,6.28-2.02,3.01-3.54,6.43-4.55,10.23-1.02,3.81-1.36,7.44-1.01,10.88,5.1,3.21,13.69,5.6,25.78,7.17,1.89,2.9,3.56,5.91,5.01,9.01,4,8.58,6.13,16.83,6.39,24.72.26,7.9-1.26,14.87-4.57,20.92-3.31,6.05-8.29,10.62-14.95,13.73-6.22,2.9-12.04,4.04-17.46,3.41-5.43-.62-10.97-2.95-16.63-6.97-.86-.68-1.75-1.43-2.68-2.26,3.46-17.29,5.13-34.78,4.99-52.46-.14-17.68-1.95-34.81-5.45-51.38-3.5-16.57-8.52-31.88-15.08-45.94-7.73-16.57-16.92-28.37-27.58-35.38-10.66-7.01-21.02-8.17-31.08-3.48-7.25,3.38-12.61,8.31-16.07,14.79-3.46,6.48-4.88,14.08-4.24,22.79.42,5.93,1.98,12.86,4.69,20.79,2.71,7.93,6.92,18.03,12.65,30.32l28.78,61.71c9.04,19.39,17.26,33.93,24.67,43.63-2.25,10.24-5.48,18.96-9.7,26.15-4.18,7.14-8.92,11.96-14.21,14.46-4.69,2.15-8.92,1.97-12.69-.56-3.8-2.55-7.6-7.9-11.4-16.04l-16.67-35.74c-4.76-10.21-10.84-17.24-18.22-21.1-7.39-3.85-15.07-3.92-23.06-.19-2.07.97-4.46,2.31-7.18,4.02-2.71,1.72-6.2,4.2-10.45,7.44-6.72,5.3-12.26,9.06-16.64,11.27-5.43-7.01-10.77-12.45-15.99-16.33-5.08,1.47-9.22,3.9-12.42,7.28-3.2,3.38-5.03,6.9-5.49,10.53.97,2.07,2.78,4.51,5.44,7.33,2.66,2.81,5.46,5.34,8.4,7.57,2.94,2.24,5.38,3.71,7.33,4.42,1.13,1.27,2.36,2.95,3.7,5.03,1.33,2.08,2.62,4.45,3.86,7.12,5.32,11.4,8.63,22.47,9.94,33.2,1.31,10.74.68,20-1.91,27.78-2.59,7.78-7.14,13.19-13.65,16.23-5.77,2.69-10.9,2.42-15.37-.8-4.48-3.23-8.55-8.76-12.2-16.61l-30.33-65.04c-3.59.42-7.16,1.45-10.71,3.1-1.92.9-3.7,1.91-5.34,3.03-1.64,1.13-3.02,2.22-4.14,3.28l4.24,9.1c-4.99-1.81-10.47-2.55-16.43-2.2-5.96.35-11.54,1.73-16.71,4.15-9.77,4.56-17.29,11.13-22.56,19.71-5.28,8.59-8.1,18.28-8.46,29.08-.37,10.8,2.07,21.83,7.32,33.08.97,2.07,2.01,4.11,3.12,6.11.68,9.96-.23,18.53-2.73,25.73-2.5,7.2-6.26,11.97-11.29,14.32-4.74,2.21-9.01,2.04-12.81-.51-3.8-2.55-7.6-7.9-11.4-16.04l-14.39-30.86c-5.66-12.13-12.86-20.22-21.58-24.26-8.73-4.04-18.35-3.6-28.86,1.29-7.7,3.59-13.66,8.76-17.9,15.51-4.24,6.75-6.48,14.51-6.72,23.27-12.15-12.53-25.48-15.42-39.98-8.65-6.96,3.24-12.38,7.94-16.27,14.08s-6.02,13.26-6.39,21.36c-4.89-5.46-10.44-8.96-16.64-10.48-6.21-1.52-12.49-.8-18.85,2.17s-11.98,7.84-15.95,14.19c-3.97,6.36-7.06,16.45-9.26,30.27l-2.27,14.84c3.37,2.21,6.88,3.55,10.52,4.01,3.64.46,7.26.31,10.86-.47l2.56-17.68c1.27-9.24,2.81-15.5,4.62-18.78,1.8-3.27,3.82-5.43,6.04-6.46,6.81-3.17,13.01,1.23,18.6,13.22l33.02,70.82c3.44-.35,7.01-1.38,10.71-3.11,1.63-.76,3.26-1.7,4.9-2.83,1.64-1.13,3.09-2.25,4.37-3.39l-17.81-38.18c-4.69-10.06-7.67-19.44-8.93-28.13-1.26-8.69-.84-16.09,1.26-22.21,2.1-6.12,5.82-10.42,11.15-12.9,5.92-2.76,11.48-2.52,16.69.73,5.21,3.25,9.85,9.24,13.92,17.97l28.78,61.72c3.74-.48,7.38-1.55,10.94-3.21,1.63-.76,3.26-1.7,4.9-2.83,1.64-1.13,3.09-2.25,4.37-3.39l-17.81-38.18c-7.38-15.83-10.91-29.28-10.57-40.34.34-11.06,4.43-18.42,12.27-22.07,5.18-2.42,10.14-2.2,14.89.63,4.74,2.83,8.91,8.1,12.5,15.79l13.25,28.42c12.28,26.34,29.15,34.51,50.61,24.5,0,0,0,0,0,0h0s0,0,0,0c0,0,0,0,0,0,14.94-6.97,23.69-19.7,26.24-38.18,7.25,4.73,15.05,7.44,23.39,8.15,8.34.7,16.81-.95,25.39-4.95,7.84-3.66,14.17-8.73,18.99-15.21,4.82-6.48,7.95-13.75,9.42-21.82,10.96,10.75,23.68,12.74,38.19,5.98,0,0,0,0,0,0,0,0,0,0,0,0,0,0,0,0,0,0,0,0,0,0,0,0,11.1-5.18,19.27-13.04,24.53-23.6,5.25-10.56,7.38-22.9,6.38-37.03-1-14.13-5.23-29.18-12.68-45.17-1.1-2.37-2.28-4.7-3.53-7,3.56-2.02,8.62-5.46,15.19-10.32,3.73-2.82,6.34-4.75,7.83-5.81,1.49-1.05,2.9-1.89,4.23-2.51,3.85-1.79,7.13-1.7,9.86.27,2.72,1.98,5.64,6.29,8.74,12.95l16.05,34.41c12.29,26.34,29.16,34.51,50.62,24.5,15.83-7.38,27.04-21.8,33.62-43.24,15.35,10.5,32.71,11.23,52.1,2.19,10.95-5.11,19.2-12.24,24.75-21.41,5.55-9.16,8.21-19.68,7.98-31.56-.23-11.88-3.44-24.48-9.65-37.8-.52-1.1-1.05-2.18-1.59-3.24,2.92-1.57,5.96-3.36,9.17-5.43,4.98-3.22,9.64-6.57,13.97-10.03,4.49,9.26,8.25,16.74,11.28,22.44,3.02,5.71,5.67,10.24,7.96,13.59,2.28,3.35,4.48,6.33,6.61,8.95,6.37,7.48,13.64,12.15,21.81,14.02,8.17,1.87,17.21.49,27.13-4.14.13-.06.25-.13.38-.2.09-.04.19-.07.28-.11,12.29-5.73,22.14-13.66,29.58-23.79,7.44-10.13,12.13-21.6,14.09-34.41,12.62,19.34,28.11,24.73,46.46,16.17,0,0,0,0,0,0h0s0,0,0,0c0,0,0,0,0,0,13.02-6.07,24.57-16.86,34.63-32.37,6.07,2.21,12.78,3.05,20.09,2.52,7.32-.53,14.53-2.45,21.64-5.77l.22-.1c6.07-2.83,11.46-6.34,16.18-10.52,4.72-4.18,8.86-8.82,12.43-13.91-1.38-2.96-3.37-5.77-5.96-8.44ZM682.59,149.33c-6.97-14.95-12.41-27.09-16.32-36.44-3.91-9.35-6.64-16.94-8.2-22.8-1.56-5.85-2.42-10.9-2.6-15.14-.22-8.19,2.56-13.63,8.34-16.32,5.03-2.35,10.51-.94,16.43,4.23,5.92,5.17,11.75,13.89,17.48,26.17,7.32,15.69,10.39,30.97,9.22,45.84-1.17,14.87-5.7,27.39-13.57,37.55l-10.77-23.09ZM367.76,378.32c4.83,10.36,5.88,20.05,3.15,29.07-2.73,9.02-8.76,15.71-18.08,20.05-8.44,3.93-16.46,4.03-24.06.27-7.61-3.75-13.86-10.88-18.76-21.39-3.52-7.55-5.24-14.9-5.15-22.06.08-7.15,1.78-13.57,5.07-19.26,3.3-5.68,8.13-10.01,14.49-12.97,4.88-2.28,10.19-3.26,15.92-2.96,5.72.3,11,1.76,15.83,4.38l11.6,24.86ZM562.99,239.44l-27.95-59.94c-8.56-18.35-13.34-31.7-14.36-40.06-1.13-9.38,1.33-15.49,7.4-18.32,10.36-4.83,21.1,4.67,32.21,28.49,7.59,16.28,12.94,34.6,16.03,54.96,3.1,20.36,3.61,41.65,1.54,63.88-4.33-7.35-9.29-17.02-14.88-29.01ZM880.02,158.89c-7.39-5.02-13.81-13.38-19.26-25.07-3.52-7.55-4.6-14.79-3.24-21.73,1.36-6.94,4.92-11.76,10.7-14.45,4.59-2.14,8.88-2.29,12.89-.47,4,1.83,7.25,5.4,9.73,10.73,2.69,5.77,3.19,12.93,1.5,21.46-1.69,8.54-5.8,18.38-12.31,29.53Z"/>
    </g>
  </g>
</svg>