<?xml version="1.0" encoding="UTF-8"?>
<svg id="Layer_2" data-name="Layer 2" xmlns="http://www.w3.org/2000/svg" viewBox="0 0 978.46 569.37">
  <defs>
    <style>
      .cls-1 {
        fill: #153356;
      }

      .cls-2 {
        fill: #fff;
      }
    </style>
  </defs>
  <g id="Layer_1-2" data-name="Layer 1">
    <path class="cls-1" d="M801.7,569.37c-47.86,0-90.59-12.85-124.91-37.35l-76.46,22.93c-8.97,2.69-18.63,4.91-28.72,6.6l-.18.03c-11.53,1.91-22.99,2.88-34.07,2.88-22.41,0-44.41-3.38-65.38-10.05l-36.92-11.73-40.87,12.26c-8.97,2.69-18.62,4.91-28.72,6.6l-.18.03c-11.53,1.91-22.99,2.88-34.07,2.88-23.93,0-46.69-3.71-67.63-11.03l-73.31-25.62v-148.52l-33.31-7.56c-22.41-5.08-43.61-13.88-63-26.14-22.96-14.5-42.17-34.04-57.02-58.07L0,227.77l63.14-94.71c31.49-46.57,60.64-77.67,91.75-97.87C190.86,11.83,230.6,0,273.02,0c31.87,0,62.04,7.2,88.9,21.04C391.12,7.06,422.9,0,456.73,0c36.79,0,70.52,8.38,99.81,24.38,31.83-16.19,66.79-24.38,104.23-24.38,83.11,0,132.88,38.26,159.99,70.35,34.82,41.25,52.47,94.95,52.47,159.64v49.26l15.82,7.46c28.37,13.39,51.96,35.66,68.2,64.41,15.29,27.13,22.54,57.01,21.01,86.48l-1.98,38.31-25.5,28.69c-17.98,20.22-40.33,36.29-66.45,47.78-25.63,11.27-53.18,16.97-81.91,16.97h-.7Z"/>
    <path class="cls-2" d="M876.88,396.53c-6.9-12.21-16.05-21.07-27.22-26.33l-9.07-4.28-8.16,5.83c-5.35,3.82-10.44,6.67-15.15,8.48-4.06,1.57-7.66,2.36-10.68,2.36-11.28,0-15.41-4.33-17.98-8.58-3.51-5.81-7.7-18.6-7.7-46.55v-97.46c0-42.29-10.32-75.96-30.68-100.08-21.09-24.96-51.19-37.62-89.48-37.62-27.53,0-52.59,7.17-74.48,21.32-12.9,8.34-24.28,18.74-34.02,31.09-20.95-34.43-53.48-52.41-95.54-52.41-25.18,0-48.22,6.57-68.46,19.52-11.35,7.27-21.5,16.28-30.37,26.95-6.21-9.87-13.77-18.41-22.63-25.54-17.31-13.9-38.25-20.94-62.24-20.94s-47.12,6.83-67.86,20.29c-20.12,13.07-41.54,36.64-65.56,72.17l-29.93,44.89,5.77,9.34c7.41,11.99,16.78,21.62,27.84,28.6,10.49,6.63,21.96,11.39,34.1,14.14l11.57,2.63,34.62-52.79c17.4-26.96,26.53-35.74,30.43-38.59,7.64-5.58,11.92-6.18,13.41-6.18,10.06,0,15.16,13.36,15.16,39.7v235.81l11.45,4c11.14,3.89,23.65,5.86,37.19,5.86,6.03,0,12.4-.55,18.96-1.64,6.33-1.06,12.22-2.41,17.5-3.99l12.18-3.65v-133.32c0-29.99,3.41-56.52,10.14-78.86,6.42-21.34,15.2-37.87,26.09-49.15,9.58-9.93,20.12-14.76,32.22-14.76,12.98,0,21.65,4.42,28.09,14.31,7.7,11.85,11.61,30.06,11.61,54.14v207.43l11.92,3.79c11.92,3.79,24.52,5.71,37.43,5.71,6.03,0,12.4-.55,18.96-1.64,6.33-1.06,12.22-2.41,17.5-3.99l12.18-3.65v-133.32c0-47.09,6.58-84.02,19.56-109.75,14.92-29.6,31.85-33.02,43.28-33.02,10.7,0,18.02,3.75,23.71,12.13,6.89,10.16,10.38,25.81,10.38,46.5v89.75c0,117.28,64.58,141.9,118.76,141.9h.7c15.86,0,30.91-3.08,44.74-9.16,13.89-6.11,25.55-14.4,34.64-24.62l3.98-4.48.31-5.99c.63-12.13-2.46-24.34-9.2-36.29Z"/>
  </g>
</svg>